<svg xmlns="http://www.w3.org/2000/svg" height="105.016" width="370.5"
    style="width:370.5px;height:105.016px;position:absolute;top:50%;left:50%;transform:translate(-50%,-50%) scale(1);z-index:0;cursor:pointer">
    <path xmlns="http://www.w3.org/2000/svg"
        d="M43.75 0 0 26.254v52.51l43.75 26.252L87.5 78.765V26.254L43.75 0zm0 8.598 12.279 7.37-33.744 19.228-11.49-6.819L43.75 8.598zm-3.26 85.86L7.167 74.465V34.8l11.063 6.565v11.144l6.571 3.825v-11.07l15.688 9.31v39.885zM29.12 39.253l33.365-19.41L76.83 28.45l-32.715 19.7-14.994-8.9zm51.216 35.21L47.653 94.075V54.628l32.683-19.682v39.517z"
        fill="#0d1219" />
    <path
        d="M131.237 23.001c10.441 0 19.075 7.667 19.075 20.654s-8.634 20.657-19.075 20.657c-5.165 0-9.786-2.005-12.138-5.627v23.968H108V23.77h10.52l.312 5.323c2.198-3.93 7.016-6.089 12.41-6.089zm-2.505 32.097c5.82 0 10.48-4.238 10.48-11.443s-4.66-11.444-10.48-11.444c-5.935 0-10.56 4.507-10.56 11.444s4.625 11.443 10.56 11.443zm43.89 9.056c-8.901 0-15.799-3.504-17.223-11.021l9.284-2.62c1.196 4.238 4.203 5.895 7.94 5.895 2.734 0 5.702-.844 5.627-3.97-.04-4.12-6.282-4.466-12.564-6.704-4.74-1.657-9.285-4.198-9.285-10.867 0-8.129 6.743-11.866 15.527-11.866 7.707 0 14.143 2.928 15.685 10.481l-8.594 1.926c-1.195-3.698-3.816-5.012-7.051-5.012-2.928 0-5.434 1.042-5.434 3.512 0 3.117 4.585 3.737 9.557 5.083 6.128 1.657 12.833 4.316 12.833 12.796 0 9.092-7.746 12.367-16.301 12.367zm56.764-11.522c0 4.853.461 7.94.962 9.675v1.078h-10.366l-.887-4.317c-2.968 3.583-8.09 5.09-12.714 5.09-6.243 0-12.332-2.778-12.332-11.025 0-8.208 6.125-10.982 14.411-12.793l6.511-1.46c2.813-.659 3.816-1.622 3.816-3.24 0-3.894-3.544-4.972-6.669-4.972-4.005 0-7.047 1.579-7.742 6.05l-9.825-1.776c1.657-8.208 7.667-11.94 18.187-11.94 7.939 0 16.648 2.347 16.648 14.296v15.334zm-19.537 4.009c5.276 0 9.518-3.508 9.518-11.365l-9.403 2.656c-3.082.73-5.32 1.811-5.32 4.47 0 2.85 2.352 4.239 5.205 4.239zM263.566 23c9.517 0 14.758 4.933 14.758 13.72v26.664h-11.136V39.109c0-5.28-3.275-7.205-7.09-7.205-4.586 0-8.749 2.312-8.824 9.632v21.849H240.17V23.77h11.1v4.396c2.774-3.275 7.052-5.166 12.292-5.166zm57.994 29.635c0 4.853.461 7.935.963 9.667v1.082h-10.366l-.884-4.317c-2.968 3.583-8.094 5.09-12.718 5.09-6.243 0-12.331-2.778-12.331-11.025 0-8.208 6.128-10.982 14.41-12.793l6.511-1.46c2.818-.659 3.82-1.622 3.82-3.24 0-3.894-3.548-4.972-6.669-4.972-4.009 0-7.051 1.579-7.746 6.05l-9.825-1.776c1.657-8.208 7.667-11.94 18.19-11.94 7.936 0 16.645 2.347 16.645 14.296v15.334zm-19.537 4.005c5.28 0 9.518-3.508 9.518-11.365l-9.403 2.656c-3.082.73-5.316 1.811-5.316 4.47 0 2.85 2.348 4.239 5.201 4.239zM355.74 23c9.518 0 14.758 4.933 14.758 13.72v26.664h-11.136V39.109c0-5.28-3.275-7.205-7.09-7.205-4.586 0-8.749 2.312-8.824 9.632v21.849h-11.1V23.77h11.1v4.396C346.222 24.892 350.5 23 355.74 23z"
        fill="#0d1219" />
</svg>